<svg width="55" height="53" viewBox="0 0 55 53" fill="none" xmlns="http://www.w3.org/2000/svg">
<g clip-path="url(#clip0)">
<circle cx="26" cy="25" r="25" fill="white"/>
<path d="M26.5351 -2.77344C11.8745 -2.77344 0 9.11448 0 23.7762C0 35.5088 7.6023 45.4582 18.1434 48.966C19.4701 49.2159 19.9566 48.3941 19.9566 47.6894C19.9566 47.059 19.9345 45.3884 19.9234 43.1752C12.5423 44.776 10.9855 39.6133 10.9855 39.6133C9.77818 36.549 8.0335 35.7295 8.0335 35.7295C5.62986 34.0836 8.21924 34.1174 8.21924 34.1174C10.8838 34.302 12.2835 36.853 12.2835 36.853C14.6496 40.9124 18.495 39.7394 20.0119 39.0617C20.2507 37.3438 20.934 36.1753 21.6924 35.5111C15.7994 34.8469 9.6057 32.5639 9.6057 22.3916C9.6057 19.4939 10.6339 17.1253 12.3366 15.2678C12.0381 14.5969 11.1425 11.8973 12.5688 8.2409C12.5688 8.2409 14.7911 7.52943 19.8659 10.963C21.9887 10.3731 24.2442 10.0804 26.4997 10.0669C28.7552 10.0804 31.0107 10.3731 33.1335 10.963C38.1751 7.52943 40.3975 8.2409 40.3975 8.2409C41.8237 11.8973 40.9282 14.5969 40.6628 15.2678C42.3544 17.1253 43.3827 19.4939 43.3827 22.3916C43.3827 32.5909 37.1801 34.8356 31.276 35.4885C32.2048 36.2856 33.0671 37.9134 33.0671 40.4013C33.0671 43.9542 33.034 46.8091 33.034 47.6714C33.034 48.3671 33.4983 49.1979 34.8583 48.9323C45.4745 45.4469 53.0702 35.4908 53.0702 23.7762C53.0702 9.11448 41.1891 -2.77344 26.5351 -2.77344Z" fill="#212121"/>
</g>
<defs>
<clipPath id="clip0">
<rect width="55" height="52.71" fill="white"/>
</clipPath>
</defs>
</svg>
