<svg width="55" height="53" viewBox="0 0 55 53" fill="none" xmlns="http://www.w3.org/2000/svg">
<g clip-path="url(#clip0)">
<path d="M54.8347 15.489C54.7008 12.6837 54.2359 10.7678 53.5561 9.0917C52.8658 7.33312 51.7832 5.74022 50.3842 4.4236C49.0108 3.08285 47.3483 2.04491 45.5133 1.38298C43.7639 0.731905 41.7653 0.28673 38.838 0.15925C35.9053 0.030563 34.9683 0 27.5 0C20.0317 0 19.0947 0.030563 16.162 0.158445C13.2347 0.28673 11.2361 0.732307 9.48669 1.38378C7.65171 2.04531 5.98961 3.08285 4.61578 4.4236C3.21678 5.73982 2.13375 7.33272 1.44306 9.0913C0.763702 10.7678 0.299187 12.6837 0.166168 15.4886C0.0318909 18.2996 0 19.1972 0 26.3546C0 33.5124 0.0318909 34.4104 0.166168 37.221C0.299606 40.0259 0.764542 41.9418 1.44432 43.6183C2.13459 45.3765 3.2172 46.9698 4.6162 48.286C5.98961 49.6268 7.65213 50.6643 9.48711 51.3258C11.2361 51.9777 13.2351 52.4229 16.1624 52.5512C19.0955 52.6794 20.0321 52.7096 27.5004 52.7096C34.9688 52.7096 35.9058 52.6794 38.8385 52.5512C41.7657 52.4229 43.7643 51.9777 45.5137 51.3258C49.2076 49.9569 52.1277 47.1584 53.5561 43.6183C54.2363 41.9418 54.7008 40.0259 54.8347 37.221C54.9681 34.41 55 33.5124 55 26.355C55 19.1972 54.9681 18.2996 54.8347 15.489ZM49.8845 37.005C49.7623 39.5747 49.3142 40.9702 48.9378 41.8987C48.0125 44.1974 46.1171 46.0139 43.7186 46.9006C42.7497 47.2613 41.2936 47.6908 38.6123 47.8078C35.7132 47.9349 34.8433 47.9615 27.5 47.9615C20.1563 47.9615 19.2868 47.9349 16.3873 47.8078C13.7064 47.6908 12.2503 47.2613 11.281 46.9006C10.0867 46.478 9.00623 45.8044 8.11916 44.9289C7.20566 44.0788 6.5028 43.0436 6.06178 41.8987C5.68539 40.9702 5.23724 39.5747 5.11513 37.005C4.98295 34.2262 4.95483 33.3925 4.95483 26.3554C4.95483 19.3179 4.98295 18.4846 5.11513 15.7054C5.23766 13.1357 5.68539 11.7402 6.06178 10.8117C6.5028 9.66677 7.20608 8.63125 8.11916 7.78111C9.00623 6.90564 10.0867 6.23205 11.2814 5.80979C12.2503 5.44867 13.7064 5.01958 16.3877 4.90215C19.2873 4.77548 20.1571 4.74853 27.5 4.74853H27.4996C34.8425 4.74853 35.7123 4.77548 38.6123 4.90255C41.2936 5.01958 42.7493 5.44907 43.7186 5.80979C44.9128 6.23245 45.9933 6.90604 46.8804 7.78111C47.7939 8.63125 48.4968 9.66677 48.9374 10.8117C49.3142 11.7402 49.7623 13.1357 49.8845 15.7054C50.0166 18.4842 50.0447 19.3179 50.0447 26.355C50.0447 33.3925 50.0171 34.2258 49.8845 37.005Z" fill="url(#paint0_linear)"/>
<path d="M27.5003 12.8203C19.7013 12.8203 13.3789 18.8798 13.3789 26.3541C13.3789 33.8284 19.7013 39.8875 27.5003 39.8875C35.2997 39.8875 41.622 33.8284 41.622 26.3541C41.622 18.8798 35.2997 12.8203 27.5003 12.8203ZM27.5003 35.139C22.438 35.1386 18.3337 31.2056 18.3342 26.3537C18.3342 21.5022 22.438 17.5688 27.5007 17.5688C32.5634 17.5692 36.6672 21.5022 36.6672 26.3537C36.6672 31.2056 32.5629 35.139 27.5003 35.139Z" fill="url(#paint1_linear)"/>
<path d="M45.4791 12.2879C45.4791 14.0344 44.0016 15.4503 42.1792 15.4503C40.3564 15.4503 38.8789 14.0344 38.8789 12.2879C38.8789 10.541 40.3564 9.125 42.1792 9.125C44.0016 9.125 45.4791 10.541 45.4791 12.2879Z" fill="url(#paint2_linear)"/>
</g>
<defs>
<linearGradient id="paint0_linear" x1="4.6155" y1="48.2862" x2="48.4392" y2="2.55861" gradientUnits="userSpaceOnUse">
<stop stop-color="#FFD600"/>
<stop offset="0.5" stop-color="#FF0100"/>
<stop offset="1" stop-color="#D800B9"/>
</linearGradient>
<linearGradient id="paint1_linear" x1="17.5151" y1="35.9236" x2="36.6372" y2="15.9708" gradientUnits="userSpaceOnUse">
<stop stop-color="#FF6400"/>
<stop offset="0.5" stop-color="#FF0100"/>
<stop offset="1" stop-color="#FD0056"/>
</linearGradient>
<linearGradient id="paint2_linear" x1="39.8456" y1="14.5239" x2="44.3141" y2="9.86135" gradientUnits="userSpaceOnUse">
<stop stop-color="#F30072"/>
<stop offset="1" stop-color="#E50097"/>
</linearGradient>
<clipPath id="clip0">
<rect width="55" height="52.71" fill="white"/>
</clipPath>
</defs>
</svg>
