<svg width="55" height="53" viewBox="0 0 55 53" fill="none" xmlns="http://www.w3.org/2000/svg">
<g clip-path="url(#clip0)">
<path d="M50.0248 0H4.9752C2.2275 0 0 2.13476 0 4.76805V47.9418C0 50.5752 2.2275 52.71 4.9752 52.71H50.0247C52.7725 52.71 55 50.5752 55 47.9418V4.76805C55 2.13476 52.7725 0 50.0248 0ZM17.0193 45.5133C17.0193 46.2797 16.3711 46.9009 15.5715 46.9009H9.40831C8.60865 46.9009 7.96046 46.2797 7.96046 45.5133V20.7533C7.96046 19.9869 8.60865 19.3657 9.40831 19.3657H15.5715C16.3711 19.3657 17.0193 19.9869 17.0193 20.7533V45.5133ZM12.4899 17.0317C9.25627 17.0317 6.63484 14.5194 6.63484 11.4204C6.63484 8.32142 9.25627 5.80914 12.4899 5.80914C15.7235 5.80914 18.3449 8.32142 18.3449 11.4204C18.3449 14.5194 15.7237 17.0317 12.4899 17.0317ZM49.2279 45.6251C49.2279 46.3296 48.6318 46.9009 47.8966 46.9009H41.2831C40.548 46.9009 39.9519 46.3296 39.9519 45.6251V34.0112C39.9519 32.2787 40.4822 26.4192 35.2275 26.4192C31.1516 26.4192 30.3249 30.4298 30.1589 32.2297V45.6251C30.1589 46.3296 29.5629 46.9009 28.8276 46.9009H22.4312C21.6961 46.9009 21.1 46.3296 21.1 45.6251V20.6415C21.1 19.9369 21.6961 19.3657 22.4312 19.3657H28.8276C29.5628 19.3657 30.1589 19.9369 30.1589 20.6415V22.8016C31.6702 20.628 33.9163 18.9502 38.6985 18.9502C49.2885 18.9502 49.2279 28.4319 49.2279 33.6417V45.6251Z" fill="#0077B7"/>
</g>
<defs>
<clipPath id="clip0">
<rect width="55" height="52.71" fill="white"/>
</clipPath>
</defs>
</svg>
