<svg width="55" height="53" viewBox="0 0 55 53" fill="none" xmlns="http://www.w3.org/2000/svg">
<g clip-path="url(#clip0)">
<path d="M27.5 52.71C42.6878 52.71 55 40.9105 55 26.355C55 11.7995 42.6878 0 27.5 0C12.3122 0 0 11.7995 0 26.355C0 40.9105 12.3122 52.71 27.5 52.71Z" fill="#039BE5"/>
<path d="M12.5835 25.7846L39.0981 15.9871C40.3287 15.561 41.4035 16.2748 41.0048 18.0582L41.0071 18.056L36.4925 38.4394C36.1579 39.8845 35.2619 40.2359 34.0083 39.5551L27.1333 34.6992L23.8173 37.7607C23.4506 38.1121 23.1412 38.4086 22.4308 38.4086L22.919 31.7035L35.6606 20.6717C36.2152 20.2039 35.5369 19.9404 34.8058 20.406L19.0598 29.9069L12.2719 27.8776C10.7983 27.4296 10.7662 26.4654 12.5835 25.7846Z" fill="white"/>
</g>
<defs>
<clipPath id="clip0">
<rect width="55" height="52.71" fill="white"/>
</clipPath>
</defs>
</svg>
